<svg xmlns="http://www.w3.org/2000/svg"  viewBox="0 0 256 256" width="1600px" height="1600px"><path fill="#72C2E9" d="M187.667,35.328H68.333c-5.523,0-10,4.477-10,10v31.333c0,5.522,4.477,10,10,10h119.333 c5.523,0,10-4.478,10-10V45.328C197.667,39.805,193.189,35.328,187.667,35.328z"/><rect width="47.33" height="47.33" x="6.359" y="173.342" fill="#F0C020"/><polygon fill="#FC5D3D" points="127.044,173.342 154.37,220.672 99.718,220.672"/><circle cx="224.133" cy="195.164" r="25.507" fill="#13BF6D"/><path fill="#F9E5AF" d="M45.689,215.172H28.02c-3.303,0-3.308-5,0-5h15.17v-28.83c0-3.303,5-3.308,5,0v31.33 C48.189,214.053,47.07,215.172,45.689,215.172z M18.02,215.172h-3.66c-3.303,0-3.308-5,0-5h3.66 C21.323,210.172,21.328,215.172,18.02,215.172z"/><path fill="#FFCBC3" d="M140.514,215.172h-14.061c-3.303,0-3.308-5,0-5h9.73l-11.305-19.58c-1.652-2.86,2.676-5.365,4.33-2.5 l13.47,23.33C143.64,213.087,142.435,215.172,140.514,215.172z M116.453,215.172h-2.879c-3.303,0-3.308-5,0-5h2.879 C119.756,210.172,119.761,215.172,116.453,215.172z"/><path d="M151.08,64.58v-7.17c0-12.779-19.34-12.778-19.34,0v7.17C131.74,77.359,151.08,77.358,151.08,64.58z M136.74,64.58v-7.17 c0-6.146,9.314-6.199,9.34,0v7.17C146.054,70.763,136.74,70.739,136.74,64.58z"/><path d="M161.05,69.25c-3.29,0-3.291,5,0,5h14.35c3.301,0,3.305-5,0-5h-4.68V50.24c0-1.876-1.952-3.063-3.62-2.24l-6.74,3.39 c-2.959,1.48-0.723,5.964,2.24,4.47l3.13-1.569v14.96H161.05z"/><path d="M97.439,64.58v-7.17c0-12.793-19.316-12.778-19.34,0v7.17C78.123,77.367,97.439,77.357,97.439,64.58z M92.439,64.58 c0,6.155-9.316,6.185-9.34,0v-7.17c0.024-6.195,9.34-6.149,9.34,0V64.58z"/><path d="M107.42,69.25c-3.303,0-3.307,5,0,5h14.34c3.303,0,3.307-5,0-5h-4.67V50.24c0-1.876-1.975-3.063-3.62-2.24l-6.75,3.39 c-2.966,1.496-0.678,5.947,2.25,4.47l3.12-1.569v14.96H107.42z"/><path d="M186.47,124.51l0.01-0.01h27.641c4.13,0.01,7.489,3.38,7.5,7.52l-0.023,18.605l-6.167-6.174 c-2.35-2.353-5.852,1.261-3.53,3.54l10.4,10.399c0.969,0.969,2.548,0.98,3.53,0l10.399-10.399c2.359-2.359-1.256-5.83-3.529-3.53 l-6.103,6.095l0.023-18.536c0-6.899-5.61-12.52-12.5-12.52h-27.65C183.163,119.5,183.171,124.51,186.47,124.51z"/><circle cx="176.47" cy="122" r="2.5"/><path d="M3.859,220.67c0,1.406,1.137,2.5,2.5,2.5h47.33c1.367,0,2.5-1.095,2.5-2.5v-47.33c0-1.34-1.071-2.5-2.5-2.5H6.359 c-1.409,0-2.5,1.156-2.5,2.5V183c0,3.303,5,3.307,5,0v-7.16h42.33v42.33H8.859V203c0-3.303-5-3.308-5,0V220.67z"/><circle cx="6.359" cy="193" r="2.5"/><path d="M124.88,172.09l-27.33,47.33c-0.959,1.676,0.256,3.75,2.17,3.75h54.65c1.923,0,3.124-2.099,2.16-3.75l-27.32-47.33 C128.219,170.393,125.81,170.459,124.88,172.09z M104.05,218.17l22.99-39.83l23,39.83H104.05z"/><path d="M224.13,223.17c15.484,0,28.01-12.511,28.01-28.01c0-15.461-12.498-28-28.01-28c-15.48,0-28,12.52-28,28 C196.13,210.665,208.664,223.17,224.13,223.17z M224.13,172.16c12.67,0.02,22.99,10.34,23.01,23 c-0.02,12.67-10.34,22.989-23.01,23.01c-12.66-0.021-22.98-10.34-23-23.01C201.149,182.5,211.47,172.18,224.13,172.16z"/><path d="M83.74,86.66c0,1.38,1.119,2.5,2.489,2.5c1.38,0,2.5-1.12,2.5-2.5c0-1.381-1.12-2.5-2.5-2.5 C84.859,84.16,83.74,85.279,83.74,86.66z"/><path d="M200.17,76.66V45.33c0-6.891-5.61-12.5-12.5-12.5H68.33c-6.891,0-12.5,5.609-12.5,12.5v31.33c0,6.89,5.609,12.5,12.5,12.5 h7.91c3.291,0,3.289-5,0-5h-7.91c-4.13-0.011-7.49-3.37-7.5-7.5V45.33c0.01-4.13,3.37-7.5,7.5-7.5h119.34c4.12,0,7.49,3.37,7.5,7.5 v31.33c-0.01,4.13-3.38,7.489-7.5,7.5H96.24c-3.303,0-3.308,5,0,5h0.01h28.29v30.346L40.06,119.5 c-6.88,0.01-12.479,5.6-12.5,12.479v21.91l-6.17-6.17c-2.352-2.352-5.836,1.22-3.54,3.521c0,0.01,0,0.01,0.01,0.01l10.4,10.399 c1.032,1.033,2.811,1.015,3.784-0.254l10.146-10.146c2.347-2.299-1.192-5.894-3.529-3.53l-6.101,6.093V131.99 c0.01-4.131,3.38-7.49,7.5-7.49h84.48v29.35l-6.13-6.13c-2.305-2.305-5.892,1.168-3.54,3.521c0,0.01,0,0.01,0,0.01l10.404,10.393 c0.993,0.993,2.58,0.964,3.536,0.006l10.4-10.399c2.346-2.35-1.249-5.835-3.53-3.53l-6.14,6.133V124.5h36.93 c3.296,0,3.315-4.99,0-4.99l-36.93-0.003V89.16h58.13C194.56,89.16,200.16,83.55,200.17,76.66z"/><g><path fill="#76FFBA" d="M223.274,215.146c-1.379-0.06-2.449-1.226-2.391-2.605c0.059-1.379,1.193-2.429,2.605-2.391 c8.377,0.397,15.644-6.304,15.644-14.986c0-4.013-1.558-7.781-4.387-10.611c-0.977-0.977-0.977-2.56,0-3.535 c0.977-0.977,2.561-0.977,3.535,0c3.773,3.774,5.852,8.798,5.852,14.146C244.133,206.479,234.781,215.618,223.274,215.146z M212.603,211.516c-0.926-0.653-1.806-1.395-2.615-2.203c-0.977-0.976-0.978-2.559-0.002-3.535 c0.976-0.979,2.558-0.979,3.535-0.002c0.609,0.608,1.271,1.166,1.965,1.656c1.128,0.796,1.397,2.355,0.601,3.483 C215.291,212.044,213.728,212.312,212.603,211.516z"/></g></svg>