<svg xmlns="http://www.w3.org/2000/svg"  viewBox="0 0 256 256" width="1600px" height="1600px"><g id="Layer_1"><path fill="#72c2e9" d="M184.5,4h-113c-11.046,0-20,8.954-20,20v208c0,11.046,8.954,20,20,20h113c11.046,0,20-8.954,20-20V24 C204.5,12.954,195.546,4,184.5,4z"/><path fill="#efbf27" d="M189.5,37v187.5c0,2.761-2.239,5-5,5h-113c-2.761,0-5-2.239-5-5V37c0-2.761,2.239-5,5-5h113 C187.261,32,189.5,34.239,189.5,37z"/><path fill="#e8a61e" d="M124.5,173.394l-34.062-19.666c-2.166-1.25-3.5-3.561-3.5-6.062v-39.331c0-2.501,1.334-4.812,3.5-6.062 L124.5,82.606c2.164-1.25,4.834-1.251,7,0l34.062,19.666c2.166,1.25,3.5,3.561,3.5,6.062v39.331c0,2.501-1.334,4.812-3.5,6.062 L131.5,173.394C129.335,174.644,126.666,174.645,124.5,173.394z"/><path fill="#f0c020" d="M37.504,127.997c-3.961-1.309-8.051-2.453-10.348-12.345c-2.115,9.112-5.504,10.745-10.348,12.345 c7.9,2.61,9.092,6.933,10.348,12.345C29.321,131.012,32.902,129.518,37.504,127.997z"/><path d="M24.566,140.943c-1.147-4.945-1.905-8.212-8.591-10.421c-2.43-0.803-2.424-4.25,0-5.051 c4.025-1.33,6.684-2.209,8.591-10.422c0.633-2.73,4.546-2.737,5.181,0c1.95,8.399,4.863,9.193,8.591,10.421 c2.43,0.803,2.424,4.25,0,5.051c-3.881,1.282-6.686,2.209-8.591,10.421C29.111,143.685,25.203,143.686,24.566,140.943z M23.046,128.058c1.914,1.314,3.222,2.815,4.164,4.403c1.141-2.017,2.462-3.405,3.934-4.439c-1.411-1.01-2.778-2.44-3.977-4.601 C25.98,125.554,24.594,126.995,23.046,128.058z"/><path fill="#f0c020" d="M239.191,127.997c-3.961-1.309-8.051-2.453-10.348-12.345c-2.115,9.112-5.504,10.745-10.348,12.345 c7.9,2.61,9.092,6.933,10.348,12.345C231.008,131.012,234.589,129.518,239.191,127.997z"/><path d="M226.252,140.943c-1.147-4.945-1.905-8.212-8.591-10.421c-2.43-0.803-2.424-4.25,0-5.051 c4.025-1.33,6.684-2.209,8.591-10.422c0.633-2.73,4.546-2.737,5.181,0c1.95,8.399,4.863,9.193,8.591,10.421 c2.43,0.803,2.424,4.25,0,5.051c-3.881,1.282-6.686,2.209-8.591,10.421C230.797,143.685,226.889,143.686,226.252,140.943z M224.732,128.058c1.914,1.314,3.222,2.815,4.164,4.403c1.141-2.017,2.462-3.405,3.934-4.439c-1.411-1.01-2.778-2.44-3.977-4.601 C227.667,125.554,226.281,126.995,224.732,128.058z"/><polygon fill="#fb5c3c" points="162.062,147.666 162.062,108.334 128,88.669 93.938,108.334 93.938,147.666 128,167.331"/><path fill="#f7e4b0" d="M179.5,222h-90c-1.381,0-2.5-1.119-2.5-2.5s1.119-2.5,2.5-2.5h90c1.381,0,2.5,1.119,2.5,2.5 S180.881,222,179.5,222z M79.5,222h-3c-1.381,0-2.5-1.119-2.5-2.5s1.119-2.5,2.5-2.5h3c1.381,0,2.5,1.119,2.5,2.5 S80.881,222,79.5,222z"/><path fill="#f7e4b0" d="M179.5,45.648h-3c-1.381,0-2.5-1.119-2.5-2.5s1.119-2.5,2.5-2.5h3c1.381,0,2.5,1.119,2.5,2.5 S180.881,45.648,179.5,45.648z M166.5,45.648h-90c-1.381,0-2.5-1.119-2.5-2.5s1.119-2.5,2.5-2.5h90c1.381,0,2.5,1.119,2.5,2.5 S167.881,45.648,166.5,45.648z"/><path d="M119.69,238.25c-1.38,0-2.5,1.12-2.5,2.5c0,1.38,1.12,2.5,2.5,2.5h16.62c1.38,0,2.5-1.12,2.5-2.5c0-1.38-1.12-2.5-2.5-2.5 H119.69z"/><path d="M149,20.5c1.381,0,2.5-1.119,2.5-2.5s-1.119-2.5-2.5-2.5h-4.333c-1.381,0-2.5,1.119-2.5,2.5s1.119,2.5,2.5,2.5H149z"/><path d="M133.333,20.5c1.381,0,2.5-1.119,2.5-2.5s-1.119-2.5-2.5-2.5H107c-1.381,0-2.5,1.119-2.5,2.5s1.119,2.5,2.5,2.5H133.333z"/><path d="M207,232V24c0-12.4-10.09-22.5-22.5-22.5h-113C59.063,1.5,49,11.563,49,24v85.57c0,1.38,1.12,2.5,2.5,2.5 c1.38,0,2.5-1.12,2.5-2.5V24c0.02-9.63,7.87-17.48,17.5-17.5h113c9.63,0.02,17.48,7.87,17.5,17.5v208 c-0.02,9.63-7.87,17.48-17.5,17.5h-113c-9.63-0.02-17.48-7.87-17.5-17.5V129.57c0-1.38-1.12-2.5-2.5-2.5c-1.38,0-2.5,1.12-2.5,2.5 V232c0,12.41,10.1,22.5,22.5,22.5h113C196.91,254.5,207,244.41,207,232z"/><circle cx="51.5" cy="119.57" r="2.5"/><circle cx="189.5" cy="197" r="2.5"/><path d="M64,37v187.5c0,4.13,3.36,7.5,7.5,7.5h113c4.13,0,7.5-3.37,7.5-7.5V207c0-1.38-1.12-2.5-2.5-2.5c-1.38,0-2.5,1.12-2.5,2.5 v17.5c0,1.38-1.12,2.5-2.5,2.5h-113c-1.38,0-2.5-1.12-2.5-2.5V37c0-1.38,1.12-2.5,2.5-2.5h113c1.38,0,2.5,1.12,2.5,2.5v150 c0,1.38,1.12,2.5,2.5,2.5c1.38,0,2.5-1.12,2.5-2.5V37c0-4.13-3.37-7.5-7.5-7.5h-113C67.36,29.5,64,32.87,64,37z"/><path d="M182,76.5c0-1.39-1.134-2.5-2.5-2.5h-13.67c-1.38,0-2.5,1.12-2.5,2.5s1.12,2.5,2.5,2.5H177v11.17c0,1.38,1.12,2.5,2.5,2.5 c1.38,0,2.5-1.12,2.5-2.5V76.5z"/><path d="M74,179.5c0,1.366,1.111,2.5,2.5,2.5h13.67c1.38,0,2.5-1.12,2.5-2.5c0-1.38-1.12-2.5-2.5-2.5H79v-11.17 c0-1.38-1.12-2.5-2.5-2.5c-1.38,0-2.5,1.12-2.5,2.5V179.5z"/><path d="M76.5,92.67c1.38,0,2.5-1.12,2.5-2.5V79h11.17c1.38,0,2.5-1.12,2.5-2.5s-1.12-2.5-2.5-2.5H76.5c-0.66,0-1.3,0.27-1.77,0.73 C74.27,75.2,74,75.84,74,76.5v13.67C74,91.55,75.12,92.67,76.5,92.67z"/><path d="M165.83,182h13.67c1.402,0,2.5-1.132,2.5-2.5v-13.67c0-1.38-1.12-2.5-2.5-2.5c-1.38,0-2.5,1.12-2.5,2.5V177h-11.17 c-1.38,0-2.5,1.12-2.5,2.5C163.33,180.88,164.45,182,165.83,182z"/><path d="M126.75,169.5c0.804,0.465,1.805,0.402,2.5,0l34.06-19.67c0.77-0.44,1.25-1.27,1.25-2.16v-39.33c0-0.9-0.48-1.73-1.25-2.17 l-7.51-4.34c-1.15-0.66-2.75-0.23-3.41,0.92c-0.683,1.166-0.302,2.709,0.91,3.41l4.557,2.635L128,126.03l-29.856-17.234L128,91.55 l7.98,4.61c1.16,0.67,2.76,0.24,3.42-0.91c0.69-1.19,0.28-2.73-0.92-3.42l-9.23-5.33c-0.76-0.44-1.74-0.44-2.5,0l-34.06,19.67 c-0.77,0.44-1.25,1.27-1.25,2.17v39.33c0,0.89,0.48,1.72,1.25,2.16L126.75,169.5z M96.44,113.586l29.06,16.782v32.629L96.44,146.22 V113.586z M130.5,162.997v-32.629l29.06-16.782v32.634L130.5,162.997z"/><path d="M144.64,101.16c1.236,0.716,2.743,0.249,3.42-0.91c0.673-1.185,0.311-2.699-0.92-3.42c-1.15-0.66-2.75-0.23-3.41,0.92 C143.045,98.954,143.444,100.468,144.64,101.16z"/></g></svg>