<svg xmlns="http://www.w3.org/2000/svg"  viewBox="0 0 256 256" width="1600px" height="1600px"><path fill="#FC5D3D" d="M169.97,117.099H86.03c0.9-3.5-0.1-7.54-3.02-10.33c1.74-1.59,3.67-2.97,5.76-4.1 c4.28-2.36,9.2-3.7,14.42-3.7h49.62c5.22,0,10.14,1.34,14.42,3.7c2.09,1.13,4.02,2.51,5.76,4.1 C169.95,109.809,169.1,113.699,169.97,117.099z"/><path fill="#B34F33" d="M93.15,117.099h-7.12c0.9-3.5-0.1-7.54-3.02-10.33c1.74-1.59,3.67-2.97,5.76-4.1 C92.2,106.469,93.98,111.709,93.15,117.099z"/><path fill="#B34F33" d="M169.97,117.099h-7.13c-0.84-5.37,0.94-10.62,4.39-14.43c2.09,1.13,4.02,2.51,5.76,4.1 C169.95,109.809,169.1,113.699,169.97,117.099z"/><path fill="#72C2E9" d="M237.81,127.099v114.57c0,5.53-4.48,10-10,10H28.19c-5.52,0-10-4.47-10-10v-114.57c0-5.52,4.48-10,10-10 h24.78c1.14,4.71,5.38,8.2,10.44,8.2h12.18c5.09,0,9.31-3.53,10.44-8.2h83.94c1.14,4.71,5.38,8.2,10.44,8.2h12.18 c5.09,0,9.31-3.53,10.44-8.2h24.78C233.33,117.099,237.81,121.579,237.81,127.099z"/><path fill="#4BA5C8" d="M93.15,117.099c-1.2,8.71-8.68,15.2-17.56,15.2H63.41c-9.47,0-16.34-7.06-17.58-15.2h7.14 c1.14,4.71,5.38,8.2,10.44,8.2h12.18c5.09,0,9.31-3.53,10.44-8.2H93.15z"/><path fill="#4BA5C8" d="M210.15,117.099c-0.07,0.58-0.19,1.16-0.34,1.74c-1.9,7.88-8.99,13.46-17.22,13.46h-12.18 c-8.88,0-16.3-6.48-17.57-15.2h7.13c1.14,4.71,5.38,8.2,10.44,8.2h12.18c5.09,0,9.31-3.53,10.44-8.2H210.15z"/><polygon fill="#EFEFEF" points="222.314,135.06 222.314,236.187 33.686,236.187 33.686,135.06"/><path fill="#FFB69F" d="M156.915,56.869h-2.37l0-6.598h-53.09v6.598h-2.37c-4.301,0-7.758,3.482-7.758,7.758 c0,4.283,3.469,7.758,7.758,7.758h2.37v0.037c0,14.707,11.936,26.543,26.526,26.546c14.558,0.003,26.564-11.788,26.564-26.546 v-0.037h2.37c4.3,0,7.758-3.482,7.758-7.758C164.673,60.344,161.205,56.869,156.915,56.869z"/><path fill="#7D7B79" d="M127.482,4.425L89.226,19c-1.249,0.476-1.249,2.242,0,2.718l12.23,4.662v23.89h53.09V26.38l12.23-4.662 c1.249-0.476,1.248-2.243,0-2.718L128.518,4.425C128.184,4.298,127.816,4.298,127.482,4.425z"/><path fill="#4C4944" d="M154.545,26.38v5.447l-26.027,9.919c-0.334,0.127-0.702,0.127-1.036,0l-26.027-9.919V26.38l26.027,9.919 c0.334,0.127,0.702,0.127,1.036,0L154.545,26.38z"/><path fill="#FC5D3D" d="M172.244,51.078h-9.065v-6.383c0-2.503,2.029-4.533,4.533-4.533l0,0c2.503,0,4.533,2.029,4.533,4.533 V51.078z"/><path fill="#FFB69F" d="M86.03,117.099c-1.124,4.665-5.339,8.2-10.44,8.2H63.41c-5.06,0-9.3-3.49-10.44-8.2 c-1.672-6.532,3.31-13.3,10.44-13.3h12.18c2.88,0,5.5,1.13,7.42,2.97C85.917,109.549,86.927,113.594,86.03,117.099z"/><path fill="#FFB69F" d="M203.03,117.099c-1.124,4.665-5.339,8.2-10.44,8.2h-12.18c-5.06,0-9.3-3.49-10.44-8.2 c-0.868-3.388-0.027-7.28,3.02-10.33c1.92-1.84,4.54-2.97,7.42-2.97h12.18C199.725,103.799,204.701,110.573,203.03,117.099z"/><path fill="#F0C020" d="M199.712,67.536c-3.501-1.157-7.117-2.168-9.147-10.913c-1.87,8.055-4.865,9.498-9.147,10.913 c6.984,2.308,8.037,6.129,9.147,10.913C192.479,70.202,195.644,68.881,199.712,67.536z"/><path fill="#F0C020" d="M74.582,67.536c-3.501-1.157-7.117-2.168-9.147-10.913c-1.87,8.055-4.865,9.498-9.147,10.913 c6.984,2.308,8.037,6.129,9.147,10.913C67.348,70.202,70.513,68.881,74.582,67.536z"/><path fill="#FFF" d="M211.805,227.468c-1.381,0-2.5-1.119-2.5-2.5v-74.884H60.188c-1.381,0-2.5-1.119-2.5-2.5 s1.119-2.5,2.5-2.5h151.616c1.381,0,2.5,1.119,2.5,2.5v77.384C214.305,226.349,213.186,227.468,211.805,227.468z M50.188,150.084 H46.5c-3.303,0-3.308-5,0-5h3.688C53.491,145.084,53.497,150.084,50.188,150.084z"/><circle cx="222.31" cy="195.939" r="2.5"/><circle cx="68.59" cy="251.669" r="2.5"/><path d="M31.19,135.059v101.13c0,1.427,1.174,2.5,2.5,2.5h188.62c1.384,0,2.5-1.126,2.5-2.5v-30.25c0-3.307-5-3.299-5,0v27.75 H36.19v-96.13h183.62v48.38c0,3.297,5,3.312,5,0v-0.01v-50.87c0-1.372-1.099-2.5-2.5-2.5H33.69 C32.338,132.559,31.19,133.643,31.19,135.059z"/><path d="M128.417,128.604c1.38,0,2.5-1.119,2.5-2.5s-1.119-2.5-2.5-2.5h-0.833c-1.381,0-2.5,1.119-2.5,2.5s1.119,2.5,2.5,2.5 H128.417z"/><path d="M227.81,114.599h-21.96v-0.07c0-6.92-5.59-13.21-13.26-13.23c-12.465,0-15.308-0.599-19.545,2.237 c-5.691-4.523-12.844-7.067-20.319-7.067h-8.406h-0.04c7.06-4.8,11.9-12.53,12.66-21.58c13.46-0.04,13.56-20.35,0.1-20.52v-26.27 l8.17-3.11v13.14c-2.65,1.01-4.53,3.57-4.53,6.57v6.38c0,1.37,1.12,2.5,2.5,2.5h9.06c1.4,0,2.5-1.13,2.5-2.5v-6.38 c0-3-1.88-5.56-4.53-6.57v-17.48c0-0.04-0.01-0.07-0.01-0.11c0-0.06,0.01-0.12,0.01-0.18c0.03-1.32-0.76-3.04-2.55-3.7 l-38.25-14.57c-0.91-0.35-1.94-0.34-2.82,0l-9.34,3.56c-3.13,1.19-1.26,5.83,1.78,4.67l8.97-3.42l35.32,13.46 c-0.41,0.16-34.91,13.3-35.32,13.46c-20.12-7.66-33.43-12.74-35.32-13.46l7.66-2.92c3.11-1.18,1.26-5.82-1.77-4.67h-0.01 l-10.22,3.89c-3.39,1.26-3.39,6.14,0,7.4l10.61,4.04c0,19.49,0.01,23.07,0.01,26.27c-13.46,0.17-13.36,20.48,0.1,20.52 c0.76,8.97,5.61,16.79,12.67,21.58h-0.044c-0.001,0-8.495,0-8.496,0c-7.045,0-14.284,2.337-20.236,7.067 c-2.159-1.448-4.707-2.237-7.364-2.237H63.41c-7.59,0.02-13.25,6.22-13.27,13.23v0.07H28.19c-6.89,0-12.5,5.61-12.5,12.5v114.57 c0,6.89,5.61,12.5,12.5,12.5h30.4c3.3,0,3.31-5,0-5h-30.4c-4.13-0.01-7.49-3.37-7.5-7.5v-114.57c0.01-4.13,3.37-7.49,7.5-7.5 h22.98c2,4.91,6.78,8.2,12.24,8.2h12.18c5.46-0.01,10.24-3.3,12.24-8.2h80.34c2,4.91,6.78,8.2,12.24,8.2h12.18 c5.47-0.01,10.24-3.3,12.25-8.2h22.97c4.13,0.01,7.49,3.37,7.5,7.5v114.57c-0.01,4.13-3.37,7.49-7.5,7.5H78.59c-3.3,0-3.31,5,0,5 h149.22c6.89,0,12.5-5.61,12.5-12.5v-114.57C240.31,120.209,234.7,114.599,227.81,114.599z M165.68,44.699c0-2.7,4.06-2.7,4.06,0 v3.88h-4.06V44.699z M157.04,59.379c6.79,0.17,6.79,10.32,0,10.49V59.379z M98.96,69.869c-6.79-0.17-6.79-10.32,0-10.49V69.869z M75.6,122.799H63.41v0.05l-0.01-0.05c-10.91,0-10.99-16.48,0.01-16.5h12.18C86.532,106.299,86.459,122.799,75.6,122.799z M103.96,30.009l22.63,8.63c0.9,0.33,1.92,0.33,2.8,0l22.65-8.63v17.76h-48.08V30.009z M103.96,72.389c0-12.46,0-12.16,0-19.62 h48.08c0,8.61,0,7.11,0,19.65c0,13.407-10.885,24.044-24.04,24.05h-0.029C114.725,96.464,103.96,85.676,103.96,72.389z M167.15,114.539v0.06h-78.3v-0.04c0-2.67-0.83-5.269-2.31-7.469c0.006-0.004,0.011-0.009,0.017-0.013 c4.648-3.519,10.411-5.608,16.633-5.608h49.62c6.241,0,12.063,2.119,16.66,5.63C167.96,109.329,167.14,111.889,167.15,114.539z M192.6,122.799h-12.19v0.05l-0.01-0.05c-11.022,0-10.688-16.5,0.01-16.5h12.18C203.6,106.319,203.41,122.799,192.6,122.799z"/><path d="M160.64,212.949c-3.303,0-3.307,5,0,5h14.34c3.303,0,3.307-5,0-5h-4.67v-19.01c0-1.879-1.977-3.061-3.62-2.24l-6.75,3.39 c-2.935,1.468-0.742,5.941,2.25,4.47l3.12-1.57v14.96H160.64z"/><path d="M177.479,162.969c0-5.33-4.34-9.67-9.67-9.67s-9.67,4.34-9.67,9.67v7.17c0,5.34,4.34,9.67,9.67,9.67s9.67-4.33,9.67-9.67 V162.969z M172.479,170.139c-0.01,2.57-2.1,4.67-4.67,4.67c-2.569,0-4.67-2.1-4.67-4.67v-7.17c0-2.57,2.101-4.66,4.67-4.67 c2.57,0.01,4.66,2.1,4.67,4.67V170.139z"/><path d="M201.8,174.809h-4.67v-19.01c0-1.888-2.003-3.055-3.63-2.23l-6.74,3.38c-2.99,1.498-0.666,5.947,2.24,4.47l3.13-1.57v14.96 h-4.67c-3.297,0-3.312,5,0,5h14.34C205.107,179.809,205.099,174.809,201.8,174.809z"/><path d="M194.63,191.439c-5.33,0-9.67,4.33-9.67,9.67v7.17c0,5.33,4.34,9.66,9.67,9.67c5.33-0.01,9.66-4.34,9.67-9.67v-7.17 C204.29,195.769,199.96,191.439,194.63,191.439z M199.3,208.279c-0.01,2.57-2.1,4.66-4.67,4.67c-2.57-0.01-4.67-2.1-4.67-4.67 v-7.17c0-2.57,2.1-4.67,4.67-4.68c2.57,0.01,4.66,2.11,4.67,4.68V208.279z"/><path d="M107,217.949h14.34c3.31,0,3.322-5,0-5h-4.67v-19.01c0-1.931-2.014-3.043-3.62-2.24l-6.74,3.39 c-2.973,1.486-0.69,5.922,2.24,4.47l3.12-1.57l0.008,14.96H107C103.694,212.949,103.703,217.949,107,217.949z"/><path d="M123.85,162.969c-0.01-5.33-4.34-9.67-9.68-9.67c-5.33,0-9.67,4.34-9.67,9.67v7.17c0,5.33,4.34,9.67,9.67,9.67 c5.34,0,9.67-4.34,9.68-9.67V162.969z M118.85,170.139c-0.01,2.57-2.11,4.67-4.68,4.67c-2.57,0-4.66-2.1-4.67-4.67v-7.17 c0.01-2.57,2.1-4.66,4.67-4.67c2.57,0.01,4.67,2.1,4.68,4.67V170.139z"/><path d="M148.16,174.809h-4.67v-19.01c0-1.886-1.999-3.062-3.62-2.23l-6.75,3.38c-2.979,1.502-0.669,5.941,2.25,4.47l3.12-1.57 v14.96h-4.671c-3.297,0-3.312,5,0,5h14.341C151.468,179.809,151.459,174.809,148.16,174.809z"/><path d="M140.99,191.429c-5.33,0.01-9.671,4.34-9.671,9.67v7.18c0,5.33,4.341,9.66,9.671,9.67c5.329-0.01,9.67-4.34,9.67-9.67 v-7.18C150.66,195.769,146.319,191.439,140.99,191.429z M145.66,208.279c0,2.57-2.101,4.66-4.67,4.67 c-2.57-0.01-4.66-2.1-4.671-4.67v-7.18c0.011-2.56,2.101-4.66,4.671-4.67c2.569,0.01,4.67,2.11,4.67,4.67V208.279z"/><path d="M53.37,212.949c-3.307,0-3.299,5,0,5h14.34c3.297,0,3.312-5,0-5h-4.67v-19.01c0-1.881-1.981-3.06-3.62-2.24l-6.75,3.39 c-2.96,1.503-0.667,5.916,2.25,4.47l3.12-1.57v14.96H53.37z"/><path d="M70.21,162.969c0-5.33-4.34-9.67-9.67-9.67c-5.33,0-9.67,4.34-9.67,9.67v7.17c0,5.33,4.34,9.67,9.67,9.67 c5.33,0,9.67-4.34,9.67-9.67V162.969z M65.21,170.139c0,2.57-2.1,4.67-4.67,4.67c-2.57,0-4.67-2.1-4.67-4.67v-7.17 c0-2.57,2.1-4.66,4.67-4.67c2.57,0.01,4.67,2.1,4.67,4.67V170.139z"/><path d="M94.53,174.809h-4.67v-19.01c0-1.884-1.985-3.047-3.62-2.23l-6.75,3.38c-2.972,1.499-0.676,5.94,2.24,4.47l3.13-1.57v14.96 h-4.67c-3.297,0-3.312,5,0,5h14.34C97.837,179.809,97.829,174.809,94.53,174.809z"/><path d="M87.36,191.439c-5.33,0-9.67,4.33-9.67,9.67v7.17c0,5.33,4.34,9.66,9.67,9.67c5.33-0.01,9.67-4.34,9.67-9.67v-7.17 C97.03,195.769,92.69,191.439,87.36,191.439z M92.03,208.279c-0.01,2.57-2.1,4.66-4.67,4.67c-2.57-0.01-4.67-2.1-4.67-4.67v-7.17 c0-2.57,2.1-4.67,4.67-4.68c2.57,0.01,4.66,2.11,4.67,4.68V208.279z"/><path d="M138.08,81.819c1.158-3.116-3.557-4.804-4.681-1.75c-0.84,2.23-3.01,3.73-5.399,3.73c-2.39,0-4.55-1.5-5.38-3.72 c-1.145-3.072-5.827-1.386-4.69,1.73c0,0,0,0,0,0.01c1.54,4.17,5.59,6.98,10.07,6.98C132.47,88.799,136.52,85.989,138.08,81.819z"/><path d="M118.147,63.846c0-3.303-5-3.308-5,0v1.563c0,3.303,5,3.308,5,0V63.846z"/><path d="M142.853,65.409v-1.563c0-3.303-5-3.308-5,0v1.563C137.853,68.712,142.853,68.717,142.853,65.409z"/><path d="M130.5,72.541v-7.132c0-3.303-5-3.308-5,0v7.132C125.5,75.844,130.5,75.849,130.5,72.541z"/><path d="M109.68,13.879c1.29-0.49,1.94-1.94,1.45-3.22c-0.48-1.25-1.97-1.93-3.23-1.45c-1.344,0.52-1.92,1.982-1.44,3.22 C106.929,13.693,108.37,14.393,109.68,13.879z"/><path d="M188.129,79.014c-1.002-4.322-1.665-7.177-7.496-9.104c-2.284-0.754-2.279-3.995,0-4.748c3.51-1.16,5.83-1.926,7.496-9.104 c0.595-2.566,4.273-2.573,4.87,0c1.697,7.309,4.214,8.029,7.497,9.104c2.284,0.754,2.279,3.995,0,4.748 c-3.511,1.16-5.831,1.926-7.496,9.104C192.402,81.592,188.728,81.592,188.129,79.014z M187.196,67.59 c1.53,1.083,2.613,2.304,3.413,3.593c0.946-1.609,2.026-2.755,3.221-3.627c-1.151-0.857-2.264-2.039-3.256-3.759 C189.588,65.502,188.455,66.693,187.196,67.59z"/><path d="M62.999,79.014c-1.002-4.322-1.665-7.177-7.496-9.104c-2.284-0.754-2.279-3.995,0-4.748c3.51-1.16,5.83-1.926,7.496-9.104 c0.595-2.566,4.273-2.573,4.87,0c1.697,7.309,4.214,8.029,7.497,9.104c2.284,0.754,2.279,3.995,0,4.748 c-3.511,1.16-5.831,1.926-7.496,9.104C67.271,81.592,63.598,81.592,62.999,79.014z M62.066,67.59 c1.53,1.083,2.613,2.304,3.413,3.593c0.946-1.609,2.026-2.755,3.221-3.627c-1.151-0.857-2.264-2.039-3.256-3.759 C64.458,65.502,63.324,66.693,62.066,67.59z"/></svg>