<svg xmlns="http://www.w3.org/2000/svg"  viewBox="0 0 256 256" width="1600px" height="1600px"><path fill="#EFEFEF" d="M184.009,65.183v104.985l-25.419,25.419c12.318,12.307,7.741,7.731,20.07,20.07l5.349-5.349v28.24 c0,5.6-4.55,10.14-10.14,10.14H24.009c-5.6,0-10.14-4.54-10.14-10.14V65.183H184.009z"/><path fill="#AFAFAF" d="M184.009,170.167l-25.419,25.419c12.318,12.307,7.741,7.731,20.07,20.07l5.349-5.349v9.9 c-0.767,0.766-1.623,1.488-2.67,1.92c-21.49,8.92-12.44,5.16-34.28,14.22c-5.75,2.38-11.53-3.4-9.15-9.15 c10.36-24.98,7.3-17.61,14.2-34.26c0.35-0.86,0.94-1.71,1.53-2.3l30.37-30.37V170.167z"/><path fill="#FC5D3D" d="M184.009,36.322v28.86H13.869v-28.86c0-5.59,4.54-10.14,10.14-10.14h12.2v12.3 c0,3.64,2.96,6.59,6.59,6.59h0.01c3.63,0,6.58-2.95,6.58-6.59v-12.3h24.42v12.3c0,3.64,2.95,6.59,6.59,6.59 c3.64,0,6.59-2.95,6.59-6.59v-12.3h24.41v12.3c0,3.64,2.95,6.59,6.58,6.59c3.64,0,6.59-2.95,6.59-6.59v-12.3h24.42v12.3 c0,3.64,2.95,6.59,6.58,6.59h0.01c3.63,0,6.59-2.95,6.59-6.59v-12.3h11.7C179.459,26.183,184.009,30.732,184.009,36.322z"/><path fill="#FC5D3D" d="M184.009,36.322v28.86H13.869v-28.86c0-5.59,4.54-10.14,10.14-10.14h12.2v12.3 c0,3.64,2.96,6.59,6.59,6.59h0.01c3.63,0,6.58-2.95,6.58-6.59v-12.3h24.42v12.3c0,3.64,2.95,6.59,6.59,6.59 c3.64,0,6.59-2.95,6.59-6.59v-12.3h24.41v12.3c0,3.64,2.95,6.59,6.58,6.59c3.64,0,6.59-2.95,6.59-6.59v-12.3h24.42v12.3 c0,3.64,2.95,6.59,6.58,6.59h0.01c3.63,0,6.59-2.95,6.59-6.59v-12.3h11.7C179.459,26.183,184.009,30.732,184.009,36.322z"/><path fill="#72C2E9" d="M227.929,166.388l-43.92,43.92l-5.349,5.349c-12.307-12.318-7.731-7.741-20.07-20.07l49.269-49.269 l10.04,10.03L227.929,166.388z"/><path fill="#FC5D3D" d="M239.166,155.153l-11.232,11.231l-10.035-10.035l-10.036-10.035l11.232-11.221 c3.964-3.964,10.38-3.964,14.334,0l5.737,5.727C243.119,144.783,243.119,151.199,239.166,155.153z"/><path fill="#F0C020" d="M178.66,215.657l-15.355,6.375l-11.08-11.08l6.365-15.366 C170.931,207.924,166.351,203.344,178.66,215.657z"/><polygon fill="#7C7B7A" points="163.305,222.032 144.379,229.878 152.225,210.952"/><path d="M219.045,102.989c-3.729-1.228-6.641-2.022-8.591-10.421c-0.635-2.737-4.548-2.729-5.181,0 c-1.907,8.213-4.566,9.092-8.591,10.422c-2.424,0.801-2.43,4.248,0,5.051c6.686,2.209,7.444,5.476,8.591,10.421 c0.637,2.743,4.545,2.742,5.182,0c1.905-8.212,4.709-9.139,8.591-10.421C221.469,107.239,221.475,103.792,219.045,102.989z"/><path fill="#F0C020" d="M211.913,105.598c-1.47,1.04-2.79,2.42-3.93,4.44c-0.95-1.59-2.25-3.09-4.17-4.4 c1.55-1.06,2.94-2.51,4.12-4.64C209.133,103.158,210.503,104.588,211.913,105.598z"/><path fill="#FFCBC3" d="M173.372,57.813H37.507c-1.381,0-2.5-1.119-2.5-2.5s1.119-2.5,2.5-2.5h135.865c1.381,0,2.5,1.119,2.5,2.5 S174.753,57.813,173.372,57.813z M27.507,57.813h-3c-1.381,0-2.5-1.119-2.5-2.5s1.119-2.5,2.5-2.5h3c1.381,0,2.5,1.119,2.5,2.5 S28.888,57.813,27.507,57.813z"/><path d="M136.021,96.459c1.381,0,2.5-1.119,2.5-2.5s-1.119-2.5-2.5-2.5H61.853c-1.381,0-2.5,1.119-2.5,2.5s1.119,2.5,2.5,2.5 H136.021z"/><path d="M38.115,124.588h3.929c1.381,0,2.5-1.119,2.5-2.5s-1.119-2.5-2.5-2.5h-3.929c-1.381,0-2.5,1.119-2.5,2.5 S36.734,124.588,38.115,124.588z"/><path d="M54.115,122.088c0,1.381,1.119,2.5,2.5,2.5h64.369c1.381,0,2.5-1.119,2.5-2.5s-1.119-2.5-2.5-2.5H56.615 C55.234,119.588,54.115,120.707,54.115,122.088z"/><path d="M147.22,128.671c0.977,0.977,2.559,0.977,3.535,0l13.178-13.178c0.977-0.977,0.977-2.559,0-3.535s-2.559-0.977-3.535,0 l-11.41,11.41l-4.694-4.694c-0.977-0.977-2.559-0.977-3.535,0s-0.977,2.559,0,3.535L147.22,128.671z"/><path d="M38.115,151.261h3.929c1.381,0,2.5-1.119,2.5-2.5s-1.119-2.5-2.5-2.5h-3.929c-1.381,0-2.5,1.119-2.5,2.5 S36.734,151.261,38.115,151.261z"/><path d="M56.615,151.261h64.369c1.381,0,2.5-1.119,2.5-2.5s-1.119-2.5-2.5-2.5H56.615c-1.381,0-2.5,1.119-2.5,2.5 S55.234,151.261,56.615,151.261z"/><path d="M140.758,148.881l6.462,6.463c0.976,0.976,2.559,0.976,3.535,0l13.178-13.178c0.977-0.977,0.977-2.559,0-3.535 s-2.559-0.977-3.535,0l-11.41,11.409l-4.694-4.694c-0.977-0.977-2.559-0.977-3.535,0 C139.781,146.321,139.781,147.904,140.758,148.881z"/><path d="M38.115,177.934h3.929c1.381,0,2.5-1.119,2.5-2.5s-1.119-2.5-2.5-2.5h-3.929c-1.381,0-2.5,1.119-2.5,2.5 S36.734,177.934,38.115,177.934z"/><path d="M56.615,177.934h64.369c1.381,0,2.5-1.119,2.5-2.5s-1.119-2.5-2.5-2.5H56.615c-1.381,0-2.5,1.119-2.5,2.5 S55.234,177.934,56.615,177.934z"/><path d="M140.758,175.554l6.462,6.462c0.977,0.977,2.559,0.977,3.535,0l13.178-13.178c0.977-0.977,0.977-2.559,0-3.535 s-2.559-0.977-3.535,0l-11.41,11.41l-4.694-4.694c-0.977-0.977-2.559-0.977-3.535,0S139.781,174.577,140.758,175.554z"/><path d="M38.115,204.606h3.929c1.381,0,2.5-1.119,2.5-2.5s-1.119-2.5-2.5-2.5h-3.929c-1.381,0-2.5,1.119-2.5,2.5 S36.734,204.606,38.115,204.606z"/><path d="M56.615,204.606h64.369c1.381,0,2.5-1.119,2.5-2.5s-1.119-2.5-2.5-2.5H56.615c-1.381,0-2.5,1.119-2.5,2.5 S55.234,204.606,56.615,204.606z"/><path d="M195.62,175.09c-0.979,0.977-0.97,2.56,0,3.53c1.029,1.008,2.599,0.939,3.54,0c0.968-0.97,0.977-2.553,0-3.53 C198.22,174.14,196.569,174.14,195.62,175.09z"/><path d="M186.51,238.547v-27.205c51.18-51.179,37.205-37.205,54.424-54.422c4.921-4.92,4.922-12.935-0.002-17.87l-5.733-5.724 c-4.929-4.941-12.927-4.946-17.87-0.003c-0.004,0.004-11.23,11.22-11.234,11.225c-0.002,0.001-19.583,19.583-19.585,19.584 c0-6.556,0-121.689,0-127.81c0-6.97-5.671-12.64-12.641-12.64h-9.199v-9.781c0-5.012-4.077-9.089-9.099-9.089 c-5.006,0-9.079,4.077-9.079,9.089v9.781h-19.419v-9.781c0-5.012-4.077-9.089-9.089-9.089s-9.09,4.077-9.09,9.089v9.781H89.485 v-9.781c0-5.012-4.077-9.089-9.089-9.089s-9.089,4.077-9.089,9.089v9.781h-19.42v-9.781c0-5.012-4.073-9.089-9.089-9.089 c-5.012,0-9.089,4.077-9.089,9.089v9.781h-9.7c-6.97,0-12.641,5.67-12.641,12.64c0,4.522,0.001,77.732,0.001,82.228 c0,1.37,1.12,2.5,2.5,2.5s2.5-1.13,2.5-2.5V67.683h165.14v101.45l-24.688,24.688c-0.221,0.222-0.445,0.571-0.541,0.808 c-8.015,19.35-4.747,11.465-14.212,34.293c-0.856,2.066,1.224,4.111,3.267,3.267c23.345-9.678,13.649-5.655,34.285-14.223 c0.69-0.299,1.357-1.09,1.889-1.622v22.204c0,4.213-3.428,7.641-7.641,7.641H24.01c-4.21,0-7.636-3.423-7.64-7.632 c0-0.002,0.001-0.003,0.001-0.005v-100c0-1.38-1.12-2.5-2.5-2.5s-2.5,1.12-2.5,2.5v99.987c0,0.003-0.001,0.006-0.001,0.01 c0,6.97,5.671,12.641,12.641,12.641h149.859C180.839,251.188,186.51,245.517,186.51,238.547z M151.492,13.901 c0-2.255,1.83-4.089,4.089-4.089c2.255,0,4.089,1.834,4.089,4.089v12.271c0,0.003-0.001,0.006-0.001,0.01v12.3 c0,2.254-1.834,4.089-4.099,4.09c-2.249,0-4.078-1.834-4.078-4.089V13.901z M117.984,9.813c2.255,0,4.089,1.834,4.089,4.089 v12.243c0,0.013-0.004,0.025-0.004,0.039v12.3c0,2.254-1.834,4.088-4.087,4.09c-2.096-0.001-4.083-1.741-4.083-4.09v-12.3 c0-0.017-0.005-0.032-0.005-0.048V13.901C113.895,11.646,115.729,9.813,117.984,9.813z M80.396,9.813 c2.255,0,4.089,1.834,4.089,4.089v24.582c0,2.254-1.833,4.088-4.087,4.089c-2.254-0.001-4.088-1.835-4.088-4.09v-12.3 c0-0.007-0.002-0.013-0.002-0.02V13.901C76.308,11.646,78.142,9.813,80.396,9.813z M38.71,13.901c0-2.255,1.834-4.089,4.099-4.089 c2.249,0,4.079,1.834,4.079,4.089v24.582c0,2.255-1.83,4.088-4.088,4.089c-2.255,0-4.089-1.835-4.089-4.09v-12.3V13.901z M16.369,36.322c0-4.213,3.428-7.64,7.641-7.64h9.7v9.8v0.001c0,5.012,4.077,9.089,9.099,9.089c0,0,0,0,0,0s0,0,0,0 c5.007,0,9.08-4.078,9.08-9.09v-9.8h19.418v9.801c0,5.012,4.077,9.089,9.089,9.089c0,0,0.001,0,0.001,0s0.001,0,0.001,0 c5.012,0,9.09-4.078,9.09-9.09v-9.8h19.405v9.801c0,4.995,4.071,9.089,9.085,9.089c0.001,0,0.002,0,0.002,0s0.002,0,0.002,0 c5.012,0,9.089-4.077,9.089-9.089v-9.801h19.416v9.8c0,5.012,4.073,9.09,9.09,9.09c0,0,0.001,0,0.001,0s0.001,0,0.001,0 c5.012,0,9.089-4.077,9.089-9.089v-9.801h9.199c4.213,0,7.641,3.427,7.641,7.64v26.36H16.369V36.322z M178.661,212.12 l-6.501-6.501l19.93-19.93c0.982-0.982,0.962-2.568,0-3.529c-0.95-0.95-2.6-0.95-3.54,0l-19.925,19.924l-6.498-6.498 c6.518-6.518,39.202-39.202,45.733-45.733l6.499,6.499L202.7,168.01c-1.011,1.011-0.964,2.598,0,3.54 c0.982,0.982,2.568,0.962,3.529,0l11.664-11.664l6.501,6.501L178.661,212.12z M220.862,136.859 c2.977-2.977,7.807-2.999,10.8,0.002l5.734,5.724c2.974,2.981,2.975,7.826,0.002,10.8l-9.465,9.464 c-25.615-25.615,6.026,6.025-16.534-16.534L220.862,136.859z M159.468,200.001l14.781,14.78l-10.358,4.301l-8.716-8.717 L159.468,200.001z M149.002,225.255l4.101-9.89l5.79,5.79L149.002,225.255z"/><circle cx="13.87" cy="128.55" r="2.5"/><g><path fill="#FFF" d="M23.869,241.047c-1.381,0-2.5-1.119-2.5-2.5v-3c0-1.381,1.119-2.5,2.5-2.5s2.5,1.119,2.5,2.5v3 C26.369,239.928,25.25,241.047,23.869,241.047z M23.869,228.047c-1.381,0-2.5-1.119-2.5-2.5V75.183c0-1.381,1.119-2.5,2.5-2.5 s2.5,1.119,2.5,2.5v150.364C26.369,226.928,25.25,228.047,23.869,228.047z"/></g></svg>