<svg xmlns="http://www.w3.org/2000/svg"  viewBox="0 0 64 64" width="512px" height="512px"><path fill="#37d0ee" d="M48.26,48.26c-1.31,1.32-2.74,2.44-4.26,3.36c-7.34,4.51-16.66,4.51-24,0	c-1.52-0.92-2.95-2.04-4.26-3.36c-8.99-8.98-8.99-23.54,0-32.52c8.98-8.99,23.54-8.99,32.52,0C57.25,24.72,57.25,39.28,48.26,48.26z"/><ellipse cx="32" cy="61" opacity=".3" rx="19" ry="3"/><circle cx="32" cy="27" r="8" fill="#008aa9"/><path fill="#008aa9" d="M44,47v4.62c-7.34,4.51-16.66,4.51-24,0V47c0-6.63,5.37-12,12-12S44,40.37,44,47z"/><path fill="#fff" d="M32,14c2.577,0,4.674-1.957,4.946-4.461C35.352,9.19,33.699,9,32,9 C19.297,9,9,19.297,9,32c0,1.699,0.19,3.352,0.539,4.946C12.044,36.674,14,34.577,14,32C14,22.075,22.075,14,32,14z" opacity=".3"/><path d="M54.461,27.054C51.956,27.326,50,29.423,50,32c0,9.925-8.075,18-18,18 c-2.577,0-4.674,1.957-4.946,4.461C28.648,54.81,30.301,55,32,55c12.703,0,23-10.297,23-23C55,30.301,54.81,28.648,54.461,27.054z" opacity=".15"/><path fill="#fff" d="M15.045,24.927c-0.229,0-0.46-0.053-0.678-0.163c-0.739-0.375-1.033-1.278-0.658-2.017	c2.019-3.977,5.339-7.241,9.347-9.192c0.743-0.363,1.642-0.053,2.005,0.692c0.363,0.745,0.053,1.643-0.692,2.005	c-3.424,1.667-6.26,4.456-7.985,7.853C16.119,24.627,15.592,24.927,15.045,24.927z"/></svg>