<svg xmlns="http://www.w3.org/2000/svg"  viewBox="0 0 64 64" width="512px" height="512px"><circle cx="32" cy="32" r="23" fill="#fd3c4f"/><ellipse cx="32" cy="61" opacity=".3" rx="19" ry="3"/><path fill="#fff" d="M32,14c2.577,0,4.674-1.957,4.946-4.461C35.352,9.19,33.699,9,32,9 C19.297,9,9,19.297,9,32c0,1.699,0.19,3.352,0.539,4.946C12.044,36.674,14,34.577,14,32C14,22.075,22.075,14,32,14z" opacity=".3"/><path d="M54.461,27.054C51.956,27.326,50,29.423,50,32c0,9.925-8.075,18-18,18 c-2.577,0-4.674,1.957-4.946,4.461C28.648,54.81,30.301,55,32,55c12.703,0,23-10.297,23-23C55,30.301,54.81,28.648,54.461,27.054z" opacity=".15"/><circle cx="32" cy="32" r="18" fill="#4ccff1"/><path fill="none" stroke="#fff" stroke-linecap="round" stroke-linejoin="round" stroke-miterlimit="10" stroke-width="3" d="M15.047,23.427c1.878-3.699,4.932-6.705,8.666-8.522"/><circle cx="32" cy="32" r="14" fill="#fd3c4f"/><circle cx="32" cy="32" r="9" fill="#4ccff1"/><circle cx="32" cy="32" r="5" fill="#fd3c4f"/><path fill="#ffce29" d="M52.568,7.059l4.242,4.243L35.007,33.104c-1.171,1.172-3.071,1.172-4.242,0 c-1.172-1.171-1.172-3.071,0-4.242L51.004,8.622c0.015-0.016,0.03-0.031,0.046-0.047L52.568,7.059z"/><path fill="#a7b3c7" d="M52.463,2.92l-4.556,4.557c-0.5,0.5-0.808,1.162-0.868,1.867l-0.394,4.636 c-0.077,0.911,0.265,1.808,0.93,2.435c0.664,0.628,1.575,0.919,2.484,0.789l4.95-0.707c0.643-0.092,1.238-0.39,1.697-0.849 l4.243-4.243c0.848-0.849,1.109-2.121,0.664-3.234c-0.445-1.114-1.512-1.856-2.711-1.886l-1.286-0.032l-0.032-1.286 c-0.03-1.199-0.771-2.266-1.886-2.711c-0.361-0.144-0.738-0.214-1.113-0.214C53.804,2.041,53.037,2.347,52.463,2.92z"/><path d="M57.616,6.252l-0.032-1.286c-0.03-1.199-0.771-2.266-1.886-2.711	c-0.361-0.144-0.738-0.214-1.113-0.214c-0.781,0-1.548,0.306-2.122,0.879l-4.556,4.557c-0.5,0.5-0.808,1.162-0.868,1.867	l-0.394,4.636c-0.075,0.884,0.251,1.748,0.877,2.372L57.622,6.252L57.616,6.252z" opacity=".2"/></svg>