<svg xmlns="http://www.w3.org/2000/svg"  viewBox="0 0 256 256" width="512px" height="512px"><path fill="#F79219" d="M215.716,125.531c0-27.496-12.526-52.876-34.367-69.633c-2.191-1.682-5.329-1.268-7.01,0.923 s-1.268,5.33,0.923,7.01c19.354,14.849,30.454,37.338,30.454,61.7c0,42.853-34.863,77.716-77.716,77.717 c-42.853,0-77.716-34.864-77.716-77.717c0-24.362,11.1-46.851,30.454-61.7c2.191-1.681,2.604-4.819,0.923-7.01 c-1.681-2.19-4.821-2.604-7.01-0.923c-21.841,16.757-34.367,42.137-34.367,69.633c0,48.366,39.348,87.715,87.714,87.717h0.003 C176.368,213.247,215.716,173.898,215.716,125.531z"/><path fill="#EF7816" d="M209.733,126.113c0-25.621-11.672-49.27-32.023-64.884c-1.29-0.99-2.932-1.2-4.361-0.706 c0.168,1.267,0.819,2.469,1.913,3.309c19.354,14.849,30.454,37.338,30.454,61.7c0,42.853-34.863,77.716-77.716,77.717 c-42.853,0-77.716-34.864-77.716-77.717c0-24.362,11.1-46.851,30.454-61.7c1.094-0.839,1.745-2.042,1.913-3.308 c-1.43-0.494-3.072-0.284-4.361,0.706c-20.351,15.614-32.023,39.263-32.023,64.884c0,45.067,36.664,81.732,81.731,81.734h0.003 C173.068,207.845,209.733,171.18,209.733,126.113z"/><path fill="#FFA91A" d="M88.03,188.52c2.336,8.967,11.035,14.463,11.035,14.463s4.912-9.042,2.576-18.009 c-1.493-5.732-5.586-10.045-8.345-12.412c-1.345-1.153-3.426-0.611-4.037,1.052C88.005,177.026,86.537,182.789,88.03,188.52z"/><path fill="#FFA91A" d="M84.602,214.018c8.967-2.336,14.463-11.035,14.463-11.035s-9.042-4.912-18.009-2.576 c-5.732,1.493-10.045,5.586-12.412,8.345c-1.153,1.345-0.611,3.426,1.052,4.037C73.108,214.043,78.87,215.512,84.602,214.018z"/><path fill="#FFA91A" d="M66.412,169.427c-0.836,9.228,5.491,17.344,5.491,17.344s7.681-6.847,8.517-16.075 c0.534-5.899-1.858-11.343-3.654-14.503c-0.875-1.54-3.017-1.734-4.155-0.376C70.277,158.603,66.946,163.528,66.412,169.427z"/><path fill="#FFA91A" d="M54.559,192.262c9.228,0.836,17.344-5.491,17.344-5.491s-6.847-7.681-16.075-8.517 c-5.899-0.534-11.343,1.858-14.503,3.654c-1.54,0.875-1.734,3.017-0.376,4.155C43.734,188.397,48.66,191.728,54.559,192.262z"/><path fill="#FFA91A" d="M51.455,139.448c-3.514,8.574,0.145,18.192,0.145,18.192s9.356-4.284,12.87-12.858 c2.246-5.481,1.561-11.388,0.775-14.937c-0.383-1.73-2.373-2.545-3.86-1.582C58.334,130.239,53.701,133.967,51.455,139.448z"/><path fill="#FFA91A" d="M33.409,157.785c8.574,3.514,18.192-0.145,18.192-0.145s-4.284-9.356-12.858-12.87 c-5.481-2.246-11.388-1.561-14.937-0.775c-1.73,0.383-2.545,2.373-1.582,3.86C24.201,150.906,27.928,155.539,33.409,157.785z"/><path fill="#FFA91A" d="M54.022,106.387c-7.58,5.329-9.68,15.403-9.68,15.403s10.19,1.433,17.77-3.896 c4.845-3.407,7.452-8.751,8.702-12.165c0.609-1.663-0.628-3.423-2.399-3.413C64.779,102.337,58.867,102.98,54.022,106.387z"/><path fill="#FFA91A" d="M28.939,112.109c5.329,7.58,15.403,9.68,15.403,9.68s1.433-10.19-3.896-17.77 c-3.407-4.845-8.751-7.452-12.165-8.702c-1.664-0.609-3.423,0.628-3.413,2.399C24.889,101.352,25.532,107.264,28.939,112.109z"/><g><path fill="#FFA91A" d="M68.51,76.666c-8.997,2.216-14.609,10.841-14.609,10.841s8.975,5.032,17.973,2.817 c5.751-1.416,10.119-5.451,12.522-8.179c1.171-1.329,0.657-3.417-0.998-4.05C80.003,76.795,74.261,75.25,68.51,76.666z"/><path fill="#FFA91A" d="M43.06,72.898c2.216,8.997,10.841,14.609,10.841,14.609s5.032-8.975,2.817-17.973 c-1.416-5.751-5.451-10.119-8.179-12.522c-1.329-1.171-3.417-0.657-4.05,0.998C43.189,61.404,41.644,67.147,43.06,72.898z"/></g><g><path fill="#FFA91A" d="M74.675,49.273c-4.87,5.106-6.545,12.029-7.121,16.086c-0.248,1.747,1.298,3.221,3.031,2.891 c4.025-0.767,10.861-2.769,15.731-7.875c4.87-5.106,6.545-12.029,7.121-16.086c0.248-1.747-1.298-3.221-3.031-2.891 C86.381,42.166,79.545,44.167,74.675,49.273z"/></g><g><path fill="#FFA91A" d="M167.97,188.52c-2.336,8.967-11.035,14.463-11.035,14.463s-4.912-9.042-2.576-18.009 c1.493-5.732,5.586-10.045,8.345-12.412c1.345-1.153,3.426-0.611,4.037,1.052C167.995,177.026,169.463,182.789,167.97,188.52z"/><path fill="#FFA91A" d="M171.398,214.018c-8.967-2.336-14.463-11.035-14.463-11.035s9.042-4.912,18.009-2.576 c5.732,1.493,10.045,5.586,12.412,8.345c1.153,1.345,0.611,3.426-1.052,4.037C182.892,214.043,177.13,215.512,171.398,214.018z"/></g><g><path fill="#FFA91A" d="M189.588,169.427c0.836,9.228-5.491,17.344-5.491,17.344s-7.681-6.847-8.517-16.075 c-0.534-5.899,1.858-11.343,3.654-14.503c0.875-1.54,3.017-1.734,4.155-0.376C185.723,158.603,189.054,163.528,189.588,169.427z"/><path fill="#FFA91A" d="M201.441,192.262c-9.228,0.836-17.344-5.491-17.344-5.491s6.847-7.681,16.075-8.517 c5.899-0.534,11.343,1.858,14.503,3.654c1.54,0.875,1.734,3.017,0.376,4.155C212.266,188.397,207.34,191.728,201.441,192.262z"/></g><g><path fill="#FFA91A" d="M204.545,139.448c3.514,8.574-0.145,18.192-0.145,18.192s-9.356-4.284-12.87-12.858 c-2.246-5.481-1.561-11.388-0.775-14.937c0.383-1.73,2.373-2.545,3.86-1.582C197.666,130.239,202.299,133.967,204.545,139.448z"/><path fill="#FFA91A" d="M222.591,157.785c-8.574,3.514-18.192-0.145-18.192-0.145s4.284-9.356,12.858-12.87 c5.481-2.246,11.388-1.561,14.937-0.775c1.73,0.383,2.545,2.373,1.582,3.86C231.799,150.906,228.072,155.539,222.591,157.785z"/></g><g><path fill="#FFA91A" d="M201.978,106.387c7.58,5.329,9.68,15.403,9.68,15.403s-10.19,1.433-17.77-3.896 c-4.845-3.407-7.452-8.751-8.702-12.165c-0.609-1.663,0.628-3.423,2.399-3.413C191.221,102.337,197.133,102.98,201.978,106.387z"/><path fill="#FFA91A" d="M227.061,112.109c-5.329,7.58-15.403,9.68-15.403,9.68s-1.433-10.19,3.896-17.77 c3.407-4.845,8.751-7.452,12.165-8.702c1.664-0.609,3.423,0.628,3.413,2.399C231.111,101.352,230.468,107.264,227.061,112.109z"/></g><g><path fill="#FFA91A" d="M187.49,76.666c8.997,2.216,14.609,10.841,14.609,10.841s-8.975,5.032-17.973,2.817 c-5.751-1.416-10.119-5.451-12.522-8.179c-1.171-1.329-0.657-3.417,0.998-4.05C175.997,76.795,181.739,75.25,187.49,76.666z"/><path fill="#FFA91A" d="M212.94,72.898c-2.216,8.997-10.841,14.609-10.841,14.609s-5.032-8.975-2.817-17.973 c1.416-5.751,5.451-10.119,8.179-12.522c1.329-1.171,3.417-0.657,4.05,0.998C212.811,61.404,214.356,67.147,212.94,72.898z"/></g><g><path fill="#FFA91A" d="M181.325,49.273c4.87,5.106,6.545,12.029,7.121,16.086c0.248,1.747-1.298,3.221-3.031,2.891 c-4.025-0.767-10.861-2.769-15.731-7.875s-6.545-12.029-7.121-16.086c-0.248-1.747,1.298-3.221,3.031-2.891 C169.619,42.166,176.455,44.167,181.325,49.273z"/></g><g><circle cx="127.936" cy="125.859" r="47.979" fill="#FFA91A"/><path fill="#FFC91D" d="M89.38,144.45c-0.8,0-1.52-0.47-1.84-1.21c-0.44-1.01,0.03-2.19,1.04-2.63c1-0.43,2.21,0.06,2.63,1.05 c0.21,0.49,0.22,1.03,0.02,1.53c-0.19,0.49-0.57,0.88-1.06,1.1C89.92,144.39,89.65,144.45,89.38,144.45z M86.93,136.85 c-0.94,0-1.76-0.66-1.96-1.57c-0.67-3.08-1.01-6.25-1.01-9.42c0-24.25,19.73-43.98,43.98-43.98c7.21,0,14.37,1.79,20.7,5.19 c0.47,0.25,0.82,0.67,0.97,1.18c0.16,0.51,0.1,1.05-0.15,1.52c-0.5,0.94-1.76,1.33-2.71,0.82c-5.75-3.08-12.26-4.71-18.81-4.71 c-10.66,0-20.7,4.16-28.26,11.72c-7.56,7.57-11.72,17.6-11.72,28.26c0,2.89,0.31,5.77,0.92,8.56c0.11,0.52,0.02,1.06-0.27,1.51 c-0.29,0.45-0.73,0.76-1.26,0.87C87.21,136.83,87.07,136.85,86.93,136.85z"/><path fill="#F79219" d="M156.494,87.301c5.919,7.979,9.422,17.859,9.422,28.557c0,26.498-21.481,47.979-47.979,47.979 c-10.698,0-20.578-3.502-28.557-9.422c8.742,11.784,22.758,19.422,38.557,19.422c26.498,0,47.979-21.481,47.979-47.979 C175.915,110.059,168.278,96.044,156.494,87.301z"/><path fill="#EF7816" d="M159.271,89.525c7.256,8.407,11.645,19.358,11.645,31.334c0,26.498-21.481,47.979-47.979,47.979 c-11.976,0-22.928-4.388-31.334-11.645c8.798,10.193,21.813,16.645,36.334,16.645c26.498,0,47.979-21.481,47.979-47.979 C175.915,111.337,169.464,98.323,159.271,89.525z"/><path fill="#FFF" d="M130.377,102.158l4.567,14.057c0.335,1.03,1.294,1.727,2.377,1.727h13.887 c2.703,0,3.826,3.459,1.64,5.047l-11.235,8.163c-0.876,0.636-1.243,1.765-0.908,2.795l4.567,14.057 c0.748,2.303-1.888,4.218-3.847,2.795l-11.787-8.564c-0.978-0.71-2.302-0.71-3.28,0l-11.787,8.564 c-1.959,1.423-4.595-0.492-3.847-2.795l4.567-14.057c0.335-1.03-0.032-2.158-0.908-2.795l-11.235-8.163 c-2.187-1.589-1.063-5.047,1.64-5.047h13.887c1.083,0,2.043-0.697,2.377-1.727l4.567-14.057 C126.371,99.855,129.629,99.855,130.377,102.158z"/></g></svg>