<svg xmlns="http://www.w3.org/2000/svg"  viewBox="0 0 64 64" width="512px" height="512px" baseProfile="basic"><ellipse cx="32" cy="61" opacity=".3" rx="22" ry="3"/><path fill="#ffce29" d="M22,51H5c-1.657,0-3-1.343-3-3V27h20V51z"/><rect width="20" height="31" x="22" y="20" fill="#ffce29"/><path fill="#ffce29" d="M59,51H42V30h20v18C62,49.657,60.657,51,59,51z"/><path fill="#98c900" d="M22,28H2v-2c0-1.657,1.343-3,3-3h14c1.657,0,3,1.343,3,3V28z"/><path fill="#fff" d="M2,26v1v1v19c2.761,0,5-2.239,5-5V28h4c2.761,0,5-2.239,5-5H5C3.343,23,2,24.343,2,26z" opacity=".3"/><path fill="#fd3c4f" d="M42,20H22v-2c0-1.657,1.343-3,3-3h14c1.657,0,3,1.343,3,3V20z"/><path fill="#9c34c2" d="M62,31H42v-2c0-1.657,1.343-3,3-3h14c1.657,0,3,1.343,3,3V31z"/><path d="M62,48V33c-2.761,0-5,2.239-5,5v8h-3c-2.761,0-5,2.239-5,5h10C60.657,51,62,49.657,62,48z" opacity=".15"/><path fill="#bd6300" d="M29.364,34.981c-0.799,0-1.2-0.388-1.2-1.164c0-0.763,0.401-1.145,1.2-1.145H31.2V25.29l-1.327,0.8	c-0.351,0.206-0.666,0.261-0.945,0.164c-0.278-0.097-0.49-0.279-0.636-0.546c-0.145-0.266-0.188-0.554-0.127-0.863	c0.061-0.309,0.26-0.573,0.601-0.791l2.527-1.528c0.254-0.157,0.512-0.284,0.772-0.382C32.325,22.048,32.582,22,32.837,22	c0.364,0,0.651,0.097,0.864,0.291c0.212,0.194,0.318,0.479,0.318,0.854v9.527h1.654c0.789,0,1.182,0.382,1.182,1.145	c0,0.776-0.394,1.164-1.182,1.164H29.364z"/><path fill="#bd6300" d="M8.54,42.981c-0.459,0-0.79-0.105-0.994-0.316s-0.307-0.521-0.307-0.931	c0-0.265,0.066-0.512,0.199-0.741c0.132-0.229,0.313-0.464,0.543-0.705l3.398-3.579c0.506-0.542,0.871-1.024,1.093-1.446	c0.224-0.421,0.335-0.844,0.335-1.265c0-1.085-0.669-1.627-2.006-1.627c-0.35,0-0.709,0.049-1.075,0.144	c-0.368,0.097-0.75,0.266-1.149,0.507c-0.325,0.193-0.624,0.235-0.894,0.127c-0.271-0.109-0.469-0.296-0.596-0.56	c-0.127-0.265-0.157-0.545-0.091-0.841c0.066-0.295,0.262-0.539,0.587-0.732c0.531-0.326,1.109-0.569,1.736-0.733	c0.627-0.163,1.247-0.243,1.862-0.243c1.421,0,2.509,0.316,3.263,0.949c0.753,0.633,1.13,1.533,1.13,2.702	c0,0.772-0.178,1.509-0.534,2.214c-0.354,0.705-0.937,1.467-1.745,2.287l-2.458,2.495h4.194c0.784,0,1.175,0.38,1.175,1.139	c0,0.772-0.391,1.157-1.175,1.157H8.54z"/><path fill="#bd6300" d="M51.616,46.172c-0.64,0-1.287-0.072-1.943-0.217c-0.657-0.144-1.227-0.361-1.709-0.65	c-0.385-0.205-0.627-0.461-0.722-0.768c-0.097-0.307-0.081-0.593,0.046-0.858c0.126-0.265,0.334-0.454,0.622-0.569	c0.29-0.115,0.621-0.082,0.994,0.099c0.471,0.229,0.916,0.391,1.338,0.488c0.421,0.097,0.843,0.145,1.265,0.145	c1.469,0,2.205-0.548,2.205-1.644c0-1.013-0.687-1.519-2.061-1.519h-1.066c-0.397,0-0.702-0.099-0.912-0.298	c-0.212-0.199-0.316-0.473-0.316-0.822c0-0.362,0.104-0.642,0.316-0.841c0.21-0.199,0.515-0.299,0.912-0.299h0.796	c0.602,0,1.078-0.138,1.428-0.415c0.349-0.277,0.524-0.663,0.524-1.157c0-0.988-0.644-1.482-1.934-1.482	c-0.397,0-0.779,0.045-1.147,0.135s-0.768,0.25-1.202,0.479c-0.338,0.169-0.64,0.199-0.905,0.09c-0.265-0.108-0.46-0.295-0.587-0.56	c-0.126-0.265-0.154-0.542-0.081-0.831c0.072-0.289,0.282-0.53,0.632-0.723c1.047-0.615,2.228-0.921,3.542-0.921	c1.374,0,2.446,0.307,3.216,0.921c0.772,0.615,1.157,1.458,1.157,2.53c0,0.663-0.169,1.246-0.506,1.752	c-0.338,0.507-0.807,0.874-1.41,1.103c0.724,0.204,1.287,0.581,1.69,1.13c0.404,0.548,0.606,1.207,0.606,1.979	c0,1.157-0.428,2.066-1.284,2.729C54.266,45.841,53.097,46.172,51.616,46.172z"/><line x1="6.5" x2="10.5" y1="26.5" y2="26.5" fill="none" stroke="#fff" stroke-linecap="round" stroke-linejoin="round" stroke-miterlimit="10" stroke-width="3"/></svg>